<svg id="Layer_1" data-name="Layer 1" xmlns="http://www.w3.org/2000/svg" viewBox="0 0 160 160"><defs><style>.cls-1{fill:#06b6d4;}</style></defs><title>logo-only</title><path class="cls-1" d="M160,0H129.9c-12.4,0-24.3,6.5-30.2,17.4a31,31,0,0,0-3,21.3L80,47,63.3,38.7A37.1,37.1,0,0,0,64,32,32,32,0,0,0,31.1,0,32.4,32.4,0,0,0,0,31.1,32,32,0,0,0,56.1,53l6,3L10.7,81.7a15.9,15.9,0,0,0-7.1,21.4L80,64.9l76.4,38.2a15.9,15.9,0,0,0-7.1-21.4L97.9,56l6-3a32,32,0,0,0,56-18.2A31.7,31.7,0,0,0,157,18.5,16.3,16.3,0,0,1,160,0ZM40.8,45.3A15.5,15.5,0,0,1,32,48a16,16,0,0,1,0-32A15.8,15.8,0,0,1,47.9,31a3.4,3.4,0,0,1,.1,1A15.9,15.9,0,0,1,40.8,45.3ZM80,59.2A3.2,3.2,0,0,1,76.8,56a3.2,3.2,0,0,1,6.4,0A3.2,3.2,0,0,1,80,59.2ZM128,48a15.5,15.5,0,0,1-8.8-2.7A15.9,15.9,0,0,1,112,32a3.4,3.4,0,0,1,.1-1A16,16,0,0,1,144,32,16,16,0,0,1,128,48Z"/><path class="cls-1" d="M86.1,107.7l-5-2.5a88.1,88.1,0,0,0-33.4-9.1C29.1,94.9,11.6,105,2.5,121.2l16.7-5.6a71.7,71.7,0,0,1,54.7,3.9l5,2.5a87.1,87.1,0,0,0,39.1,9.3h.3c15.7,0,30-9,37.7-22.7l1.5-2.6-16.7,5.6A71.2,71.2,0,0,1,86.1,107.7Z"/><path class="cls-1" d="M86.1,136.4l-5-2.5a88.1,88.1,0,0,0-33.4-9.1c-18.6-1.2-36.1,8.9-45.2,25.1l16.7-5.6a71.7,71.7,0,0,1,54.7,3.9l5,2.5A87.1,87.1,0,0,0,118,160h.3A43.9,43.9,0,0,0,156,137.3l1.5-2.6-16.7,5.6A71.2,71.2,0,0,1,86.1,136.4Z"/></svg>