<svg id="Layer_1" data-name="Layer 1" xmlns="http://www.w3.org/2000/svg" viewBox="0 0 800 160"><title>text-only</title><path fill="#231f20" d="M137.6,61.9c6.7,6.7,10.1,16.1,10.1,28.2v52.5H125.1V93.2c0-7-1.8-12.4-5.3-16.1s-8.4-5.6-14.6-5.6-11,1.9-14.6,5.6-5.4,9.1-5.4,16.1v49.4H62.6V93.2c0-7-1.8-12.4-5.3-16.1s-8.4-5.6-14.5-5.6S31.6,73.4,28,77.1s-5.4,9.1-5.4,16.1v49.4H0V53.1H22.6V63.9a29.7,29.7,0,0,1,11.2-8.8,34.4,34.4,0,0,1,15.1-3.3,38.3,38.3,0,0,1,18.7,4.5A31.1,31.1,0,0,1,80.4,68.9,32.7,32.7,0,0,1,93,56.5a36.6,36.6,0,0,1,18-4.7C122,51.8,130.9,55.2,137.6,61.9Z"/><path fill="#231f20" d="M178.7,38.7a12.8,12.8,0,0,1-3.9-9.5,12.6,12.6,0,0,1,3.9-9.4,14.1,14.1,0,0,1,10-3.8,13.9,13.9,0,0,1,9.9,3.8,12.6,12.6,0,0,1,3.9,9.4,12.8,12.8,0,0,1-3.9,9.5,13.9,13.9,0,0,1-9.9,3.8A14.1,14.1,0,0,1,178.7,38.7Zm21.1,14.4v89.5H177.2V53.1Z"/><path fill="#231f20" d="M305.5,61.9q9.9,10,9.9,28.2v52.5H292.8V93.2c0-7.1-1.8-12.6-5.4-16.4S279,71,272.9,71s-11.2,2-14.8,5.8-5.4,9.3-5.4,16.4v49.4H230.1V53.1h22.6V64.3a31,31,0,0,1,11.6-9.2,35.8,35.8,0,0,1,15.4-3.3C290.3,51.8,298.9,55.2,305.5,61.9Z"/><path fill="#231f20" d="M371.2,71.7v43.2c0,3.1.7,5.2,2.2,6.6s3.9,2,7.3,2h10.5v19.1H377c-19,0-28.6-9.3-28.6-27.8V71.7H337.8V53.1h10.6V31h22.8V53.1h20V71.7Z"/><path fill="#231f20" d="M415.2,73.5a39.9,39.9,0,0,1,14.7-16.2,39.4,39.4,0,0,1,20.7-5.6,36.2,36.2,0,0,1,17.5,4,35.4,35.4,0,0,1,12,10.2V53.1h22.8v89.5H480.1V129.5a34.1,34.1,0,0,1-12,10.4,39.6,39.6,0,0,1-38.2-1.7,40.5,40.5,0,0,1-14.7-16.4q-5.4-10.5-5.4-24.3A51.7,51.7,0,0,1,415.2,73.5Zm61.7,10.2a23.3,23.3,0,0,0-20.5-12.2,22.6,22.6,0,0,0-20.2,12.1,26.8,26.8,0,0,0-3.4,13.9,27.8,27.8,0,0,0,3.4,14.1,23.1,23.1,0,0,0,8.7,9.3,21.6,21.6,0,0,0,11.5,3.3A23.3,23.3,0,0,0,476.9,112a28.9,28.9,0,0,0,3.2-14.2C480.1,92.3,479.1,87.6,476.9,83.7Z"/><path fill="#231f20" d="M534.6,38.7a12.9,12.9,0,0,1-4-9.5,12.7,12.7,0,0,1,4-9.4,14.8,14.8,0,0,1,19.8,0,12.3,12.3,0,0,1,4,9.4,12.5,12.5,0,0,1-4,9.5,14.8,14.8,0,0,1-19.8,0Zm21.1,14.4v89.5H533.1V53.1Z"/><path fill="#231f20" d="M608.6,23.1V142.6H586V23.1Z"/><path fill="#231f20" d="M655.4,138.3a41.4,41.4,0,0,1-16.2-16.2c-4-7-5.9-15.1-5.9-24.3a48,48,0,0,1,6-24.2,42.4,42.4,0,0,1,16.6-16.2,50.9,50.9,0,0,1,46.8,0,41.5,41.5,0,0,1,16.5,16.2c4.1,7,6.1,15.1,6.1,24.2a47.2,47.2,0,0,1-6.2,24.3,44.3,44.3,0,0,1-16.8,16.2,49.4,49.4,0,0,1-23.7,5.7A47.2,47.2,0,0,1,655.4,138.3Zm34.8-17a21.7,21.7,0,0,0,8.6-8.9c2.2-4,3.2-8.9,3.2-14.6,0-8.5-2.2-15-6.7-19.6a22.9,22.9,0,0,0-32.6,0c-4.3,4.6-6.5,11.1-6.5,19.6s2.1,15.1,6.4,19.6a20.8,20.8,0,0,0,16,6.9A23.6,23.6,0,0,0,690.2,121.3Z"/><path fill="#231f20" d="M783.9,55.9A31.9,31.9,0,0,1,800,51.8V75.6h-6c-7.1,0-12.4,1.6-16,5s-5.4,9.1-5.4,17.4v44.6H750V53.1h22.6V67A32.4,32.4,0,0,1,783.9,55.9Z"/></svg>