<?xml version="1.0" encoding="UTF-8" standalone="no"?>
<svg
   xmlns:dc="http://purl.org/dc/elements/1.1/"
   xmlns:cc="http://creativecommons.org/ns#"
   xmlns:rdf="http://www.w3.org/1999/02/22-rdf-syntax-ns#"
   xmlns:svg="http://www.w3.org/2000/svg"
   xmlns="http://www.w3.org/2000/svg"
   xmlns:sodipodi="http://sodipodi.sourceforge.net/DTD/sodipodi-0.dtd"
   xmlns:inkscape="http://www.inkscape.org/namespaces/inkscape"
   id="Layer_1"
   data-name="Layer 1"
   viewBox="0 0 800 160"
   version="1.1"
   sodipodi:docname="text-only.svg"
   inkscape:version="0.92.5 (2060ec1f9f, 2020-04-08)">
  <metadata
     id="metadata27">
    <rdf:RDF>
      <cc:Work
         rdf:about="">
        <dc:format>image/svg+xml</dc:format>
        <dc:type
           rdf:resource="http://purl.org/dc/dcmitype/StillImage" />
      </cc:Work>
    </rdf:RDF>
  </metadata>
  <defs
     id="defs25" />
  <sodipodi:namedview
     pagecolor="#ffffff"
     bordercolor="#666666"
     borderopacity="1"
     objecttolerance="10"
     gridtolerance="10"
     guidetolerance="10"
     inkscape:pageopacity="0"
     inkscape:pageshadow="2"
     inkscape:window-width="1920"
     inkscape:window-height="1044"
     id="namedview23"
     showgrid="false"
     inkscape:zoom="0.86974134"
     inkscape:cx="679.69844"
     inkscape:cy="-10.291909"
     inkscape:window-x="1366"
     inkscape:window-y="0"
     inkscape:window-maximized="1"
     inkscape:current-layer="Layer_1" />
  <title
     id="title2">text-only</title>
  <path
     d="m 186.41034,57.364598 c 6.20629,6.038038 9.35575,14.509315 9.35575,25.413831 V 130.09141 H 174.83142 V 85.572148 c 0,-6.308398 -1.66737,-11.174876 -4.90946,-14.509315 -3.24209,-3.334439 -7.78103,-5.046718 -13.52417,-5.046718 -5.74313,0 -10.18944,1.712279 -13.52416,5.046718 -3.33474,3.334439 -5.00209,8.200917 -5.00209,14.509315 V 130.09141 H 116.93687 V 85.572148 c 0,-6.308398 -1.66737,-11.174876 -4.90946,-14.509315 -3.2421,-3.334439 -7.78103,-5.046718 -13.431538,-5.046718 -5.650509,0 -10.374705,1.712279 -13.709431,5.046718 -3.334727,3.334439 -5.002089,8.200917 -5.002089,14.509315 V 130.09141 H 58.94968 V 49.434041 h 20.934672 v 9.732956 a 27.511493,26.765631 0 0 1 10.374704,-7.930557 31.865163,31.001269 0 0 1 13.987324,-2.973959 35.477784,34.515948 0 0 1 17.32205,4.055398 28.808331,28.027311 0 0 1 11.85681,11.355116 30.290432,29.46923 0 0 1 11.67154,-11.174876 33.903052,32.983909 0 0 1 16.67363,-4.235638 c 10.18944,0 18.43362,3.064079 24.63993,9.102117 z"
     id="path4"
     inkscape:connector-curvature="0"
     style="fill:#231f20;stroke-width:0.91367" />
  <path
     d="m 224.48179,36.456764 a 11.856805,11.535356 0 0 1 -3.61262,-8.561396 11.671542,11.355116 0 0 1 3.61262,-8.471278 13.061012,12.706916 0 0 1 9.26313,-3.424559 12.875749,12.526676 0 0 1 9.17049,3.424559 11.671542,11.355116 0 0 1 3.61263,8.471278 11.856805,11.535356 0 0 1 -3.61263,8.561396 12.875749,12.526676 0 0 1 -9.17049,3.424559 13.061012,12.706916 0 0 1 -9.26313,-3.424559 z M 244.027,49.434041 V 130.09141 H 223.09232 V 49.434041 Z"
     id="path6"
     inkscape:connector-curvature="0"
     style="fill:#231f20;stroke-width:0.91367" />
  <path
     d="m 341.93827,57.364598 q 9.17049,9.011996 9.17049,25.413831 V 130.09141 H 330.17409 V 85.572148 c 0,-6.398518 -1.66736,-11.355116 -5.00209,-14.779675 -3.33472,-3.424559 -7.78103,-5.226959 -13.43153,-5.226959 -5.65051,0 -10.37471,1.8024 -13.70943,5.226959 -3.33474,3.424559 -5.00209,8.381157 -5.00209,14.779675 V 130.09141 H 272.09428 V 49.434041 h 20.93467 v 10.093436 a 28.7157,27.93719 0 0 1 10.74523,-8.291037 33.162001,32.262949 0 0 1 14.26521,-2.973959 c 9.81892,0 17.78521,3.064079 23.89888,9.102117 z"
     id="path8"
     inkscape:connector-curvature="0"
     style="fill:#231f20;stroke-width:0.91367" />
  <path
     d="m 402.79702,66.196355 v 38.931825 c 0,2.79372 0.64843,4.68624 2.03789,5.94792 1.38948,1.26167 3.61262,1.8024 6.76209,1.8024 h 9.72628 v 17.21291 h -13.15364 c -17.59994,0 -26.49255,-8.38116 -26.49255,-25.05335 V 66.196355 h -9.81892 V 49.434041 h 9.81892 V 29.517527 h 21.11993 v 19.916514 h 18.52626 v 16.762314 z"
     id="path10"
     inkscape:connector-curvature="0"
     style="fill:#231f20;stroke-width:0.91367" />
  <path
     d="m 443.55479,67.818514 a 36.959885,35.957868 0 0 1 13.6168,-14.599435 36.496728,35.507268 0 0 1 19.17468,-5.046719 33.532527,32.623428 0 0 1 16.21047,3.604799 32.791477,31.902469 0 0 1 11.11576,9.192238 V 49.434041 h 21.11993 V 130.09141 H 503.6725 v -11.80572 a 31.58727,30.730909 0 0 1 -11.11576,9.37248 36.681991,35.687508 0 0 1 -35.38515,-1.53204 37.515672,36.498588 0 0 1 -13.6168,-14.77968 q -5.00209,-9.46259 -5.00209,-21.899143 a 47.890377,46.592025 0 0 1 5.00209,-21.628793 z m 57.15351,9.192237 a 21.583091,20.997953 0 0 0 -18.98941,-10.994636 20.934672,20.367113 0 0 0 -18.71152,10.904516 24.825186,24.152152 0 0 0 -3.14947,12.526676 25.751499,25.053351 0 0 0 3.14947,12.706913 21.397828,20.817713 0 0 0 8.05892,8.38116 20.008358,19.465913 0 0 0 10.6526,2.97395 21.583091,20.997953 0 0 0 18.98941,-10.99463 26.770443,26.044671 0 0 0 2.9642,-12.797033 c 0,-4.956599 -0.92631,-9.192237 -2.9642,-12.706916 z"
     id="path12"
     inkscape:connector-curvature="0"
     style="fill:#231f20;stroke-width:0.91367" />
  <path
     d="m 554.15655,36.456764 a 11.949436,11.625477 0 0 1 -3.70525,-8.561396 11.764174,11.445236 0 0 1 3.70525,-8.471278 13.709431,13.337755 0 0 1 18.341,0 11.393649,11.084756 0 0 1 3.70525,8.471278 11.578911,11.264996 0 0 1 -3.70525,8.561396 13.709431,13.337755 0 0 1 -18.341,0 z m 19.5452,12.977277 V 130.09141 H 552.76708 V 49.434041 Z"
     id="path14"
     inkscape:connector-curvature="0"
     style="fill:#231f20;stroke-width:0.91367" />
  <path
     d="M 622.7037,22.39805 V 130.09141 H 601.76903 V 22.39805 Z"
     id="path16"
     inkscape:connector-curvature="0"
     style="fill:#231f20;stroke-width:0.91367" />
  <path
     d="m 666.05515,126.21625 a 38.349354,37.309668 0 0 1 -15.00627,-14.59943 c -3.70525,-6.3084 -5.46525,-13.608122 -5.46525,-21.899153 a 44.463019,43.257585 0 0 1 5.55788,-21.809033 39.275667,38.210867 0 0 1 15.37679,-14.599435 47.149326,45.871064 0 0 1 43.35145,0 38.441986,37.399787 0 0 1 15.28416,14.599435 c 3.79789,6.308398 5.65051,13.608115 5.65051,21.809033 a 43.721969,42.536626 0 0 1 -5.74314,21.899153 41.035662,39.923147 0 0 1 -15.56205,14.59943 45.759857,44.519265 0 0 1 -21.95362,5.13684 43.721969,42.536626 0 0 1 -21.49046,-5.13684 z m 32.23569,-15.32039 a 20.10099,19.556034 0 0 0 7.96629,-8.02068 c 2.03789,-3.604796 2.9642,-8.020671 2.9642,-13.157513 0,-7.660198 -2.03789,-13.517996 -6.2063,-17.663514 a 21.212565,20.637473 0 0 0 -30.19779,0 c -3.98315,4.145518 -6.02104,10.003316 -6.02104,17.663514 0,7.660195 1.94526,13.608113 5.92841,17.663503 a 19.267309,18.744954 0 0 0 14.821,6.21829 21.860985,21.268313 0 0 0 10.74523,-2.7036 z"
     id="path18"
     inkscape:connector-curvature="0"
     style="fill:#231f20;stroke-width:0.91367" />
  <path
     d="M 785.08636,51.957399 A 29.549381,28.74827 0 0 1 800,48.262481 v 21.448552 h -5.55788 c -6.57683,0 -11.48629,1.44192 -14.82101,4.505999 -3.33472,3.064078 -5.00209,8.200917 -5.00209,15.680875 V 130.09141 H 753.68435 V 49.434041 h 20.93467 v 12.526675 a 30.012538,29.198871 0 0 1 10.46734,-10.003317 z"
     id="path20"
     inkscape:connector-curvature="0"
     style="fill:#231f20;stroke-width:0.91367" />
</svg>
